<?xml version="1.0" encoding="UTF-8" standalone="no"?><!DOCTYPE svg PUBLIC "-//W3C//DTD SVG 1.1//EN" "http://www.w3.org/Graphics/SVG/1.1/DTD/svg11.dtd"><svg width="100%" height="100%" viewBox="0 0 742 132" version="1.1" xmlns="http://www.w3.org/2000/svg" xmlns:xlink="http://www.w3.org/1999/xlink" xml:space="preserve" xmlns:serif="http://www.serif.com/" style="fill-rule:evenodd;clip-rule:evenodd;stroke-linejoin:round;stroke-miterlimit:2;"><path d="M1.417,92.938c18.051,6.823 88.012,31.863 108.108,38.146c3.97,1.241 8.403,0.427 12.469,-0.448c22.664,-4.882 111.782,-43.125 112.299,-62.124c0.464,-17.017 -45.949,-35.294 -61.429,-39.936c-16.513,-4.952 -49.405,-10.331 -49.474,-15.071c-0.072,-4.89 55.721,-12.675 55.721,-12.675c-0,-0 -41.875,-1.237 -59.698,-0.691c-16.569,0.508 -48.08,6.957 -47.365,15.153c0.504,5.773 11.555,13.336 26.146,19.074c26.946,10.598 52.715,14.184 52.275,21.589c-0.628,10.563 -124.074,29.576 -149.25,34.189c-2.392,0.438 -0.675,2.464 0.198,2.794Z" style="fill:#fff;"/><g><path d="M352.155,79.312c-5.4,0 -9.718,-0.843 -12.955,-2.531c-3.237,-1.687 -5.555,-4.312 -6.954,-7.875c-1.399,-3.562 -2.099,-8.156 -2.099,-13.781l0,-41.254l-26.068,60.379l-3.111,-0l-29.783,-62.169l-0,62.169l-5.163,-0l0,-74.25l12.479,-0l27.134,56.575l24.445,-56.575l12.847,-0l-0,55.125c-0,6.825 0.696,12.044 2.09,15.656c1.393,3.612 3.772,5.595 7.138,5.949l0,2.582Z" style="fill:#fff;fill-rule:nonzero;"/><path d="M374.013,75.375c-2.504,-0 -4.829,-0.321 -6.976,-0.963c-2.147,-0.642 -4.05,-1.597 -5.709,-2.864c-1.659,-1.267 -2.954,-2.868 -3.887,-4.805c-0.933,-1.936 -1.399,-4.198 -1.399,-6.786c-0,-3.815 1.043,-6.926 3.131,-9.33c2.088,-2.405 5.336,-4.187 9.745,-5.346c4.41,-1.159 10.012,-1.738 16.808,-1.738l2.378,-0c0,-4.807 -0.458,-8.546 -1.375,-11.218c-0.917,-2.671 -2.213,-4.546 -3.887,-5.625c-1.674,-1.078 -3.636,-1.618 -5.886,-1.618c-2.796,0 -5.23,0.653 -7.301,1.958c-2.071,1.306 -3.541,3.951 -4.409,7.937l-5.727,-0c-0,-1.95 0.123,-3.868 0.37,-5.755c0.248,-1.887 1.062,-3.565 2.442,-5.035c1.381,-1.469 3.65,-2.493 6.809,-3.07c3.159,-0.578 6.514,-0.867 10.066,-0.867c3.213,-0 6.145,0.411 8.795,1.232c2.65,0.822 4.939,2.138 6.865,3.949c1.926,1.811 3.41,4.229 4.454,7.253c1.043,3.024 1.565,6.754 1.565,11.191l0,30.375l-7.949,-0l-3.937,-5.063l-0.563,0c-1.036,1.515 -2.762,2.924 -5.18,4.23c-2.418,1.305 -5.498,1.958 -9.243,1.958Zm4.068,-5.395c2.598,0 4.715,-0.771 6.349,-2.313c1.635,-1.542 2.86,-3.132 3.674,-4.769l0,-14.523l-2.378,-0c-5.493,-0 -9.589,0.998 -12.29,2.994c-2.701,1.997 -4.051,4.859 -4.051,8.588c0,3.365 0.833,5.876 2.499,7.535c1.666,1.659 3.731,2.488 6.197,2.488Z" style="fill:#fff;fill-rule:nonzero;"/><path d="M432.194,75.375c-4.589,-0 -8.342,-0.405 -11.258,-1.215c-2.917,-0.809 -5.109,-1.927 -6.579,-3.352c-1.38,-1.336 -2.183,-3.081 -2.408,-5.235c-0.225,-2.153 -0.338,-4.655 -0.338,-7.505l3.247,-0c0.6,3.63 2.109,6.617 4.526,8.96c2.417,2.343 5.937,3.515 10.56,3.515c4.23,-0 7.239,-0.739 9.028,-2.217c1.788,-1.478 2.682,-3.319 2.682,-5.525c0,-2.206 -0.921,-4.012 -2.763,-5.416c-1.842,-1.405 -4.296,-2.775 -7.362,-4.111l-6.219,-2.614c-4.407,-1.857 -7.848,-4.001 -10.321,-6.43c-2.473,-2.429 -3.71,-5.481 -3.71,-9.156c0,-4.813 1.918,-8.487 5.753,-11.022c3.835,-2.535 8.658,-3.802 14.469,-3.802c4.496,-0 8.188,0.405 11.073,1.215c2.886,0.809 5.064,1.927 6.533,3.352c1.381,1.336 2.183,3.081 2.408,5.235c0.225,2.153 0.338,4.655 0.338,7.505l-3.245,0c-0.6,-3.63 -2.101,-6.617 -4.503,-8.96c-2.403,-2.343 -5.854,-3.515 -10.354,-3.515c-3.498,0 -6.081,0.739 -7.75,2.217c-1.669,1.478 -2.503,3.319 -2.503,5.525c-0,1.994 0.743,3.687 2.229,5.078c1.487,1.391 3.545,2.643 6.173,3.755l6.75,2.812c5.022,2.083 8.814,4.297 11.377,6.645c2.564,2.347 3.846,5.493 3.846,9.437c-0,4.813 -2.052,8.487 -6.156,11.022c-4.104,2.535 -9.279,3.802 -15.523,3.802Z" style="fill:#fff;fill-rule:nonzero;"/><path d="M482.369,75.375c-4.589,-0 -8.342,-0.405 -11.258,-1.215c-2.917,-0.809 -5.109,-1.927 -6.579,-3.352c-1.38,-1.336 -2.183,-3.081 -2.408,-5.235c-0.225,-2.153 -0.338,-4.655 -0.338,-7.505l3.247,-0c0.6,3.63 2.109,6.617 4.526,8.96c2.417,2.343 5.937,3.515 10.56,3.515c4.23,-0 7.239,-0.739 9.028,-2.217c1.788,-1.478 2.682,-3.319 2.682,-5.525c0,-2.206 -0.921,-4.012 -2.763,-5.416c-1.842,-1.405 -4.296,-2.775 -7.362,-4.111l-6.219,-2.614c-4.407,-1.857 -7.848,-4.001 -10.321,-6.43c-2.473,-2.429 -3.71,-5.481 -3.71,-9.156c0,-4.813 1.918,-8.487 5.753,-11.022c3.835,-2.535 8.658,-3.802 14.469,-3.802c4.496,-0 8.188,0.405 11.073,1.215c2.886,0.809 5.064,1.927 6.533,3.352c1.381,1.336 2.183,3.081 2.408,5.235c0.225,2.153 0.338,4.655 0.338,7.505l-3.245,0c-0.6,-3.63 -2.101,-6.617 -4.503,-8.96c-2.403,-2.343 -5.854,-3.515 -10.354,-3.515c-3.498,0 -6.081,0.739 -7.75,2.217c-1.669,1.478 -2.503,3.319 -2.503,5.525c-0,1.994 0.743,3.687 2.229,5.078c1.487,1.391 3.545,2.643 6.173,3.755l6.75,2.812c5.022,2.083 8.814,4.297 11.377,6.645c2.564,2.347 3.846,5.493 3.846,9.437c-0,4.813 -2.052,8.487 -6.156,11.022c-4.104,2.535 -9.279,3.802 -15.523,3.802Z" style="fill:#fff;fill-rule:nonzero;"/><path d="M562.113,74.25l0,-69.418l-8.864,0c-4.19,0 -7.47,1.009 -9.841,3.027c-2.372,2.018 -3.557,5.432 -3.557,10.243l-2.915,-0l0,-9.102c0,-1.5 0.263,-2.944 0.788,-4.331c0.525,-1.388 1.481,-2.513 2.869,-3.375c1.387,-0.863 3.356,-1.294 5.906,-1.294l52.645,-0l-0,4.832l-24.251,0l-0,69.418l-12.78,-0Z" style="fill:#fff;fill-rule:nonzero;"/><path d="M603.869,74.25l-0,-38.711c-0,-3.375 -0.458,-6.093 -1.373,-8.156c-0.916,-2.062 -3.061,-3.094 -6.436,-3.094l-1.125,0l0,-2.914l10.261,-0c2.673,-0 4.741,0.357 6.203,1.071c1.463,0.715 2.56,1.868 3.292,3.461c1.32,-1.231 3.177,-2.481 5.57,-3.752c2.394,-1.27 5.247,-1.905 8.56,-1.905c1.435,-0 2.813,0.164 4.131,0.493c1.319,0.329 2.436,0.838 3.35,1.527c1.09,0.777 1.946,1.71 2.568,2.801c0.622,1.09 1.057,1.844 1.303,2.261l-5.232,3.973c-0.736,-1.037 -1.821,-1.959 -3.257,-2.764c-1.435,-0.806 -3.106,-1.209 -5.011,-1.209c-2.339,0 -4.38,0.407 -6.122,1.22c-1.742,0.813 -3.131,1.861 -4.169,3.143c0.09,0.951 0.156,1.815 0.2,2.595c0.044,0.779 0.066,1.438 0.066,1.975l-0,37.985l-12.779,-0Z" style="fill:#fff;fill-rule:nonzero;"/><path d="M661.226,75.375c-2.504,-0 -4.83,-0.321 -6.977,-0.963c-2.147,-0.642 -4.049,-1.597 -5.708,-2.864c-1.659,-1.267 -2.955,-2.868 -3.888,-4.805c-0.932,-1.936 -1.399,-4.198 -1.399,-6.786c0,-3.815 1.044,-6.926 3.132,-9.33c2.087,-2.405 5.336,-4.187 9.745,-5.346c4.409,-1.159 10.012,-1.738 16.807,-1.738l2.379,-0c-0,-4.807 -0.459,-8.546 -1.376,-11.218c-0.917,-2.671 -2.212,-4.546 -3.886,-5.625c-1.674,-1.078 -3.636,-1.618 -5.886,-1.618c-2.797,0 -5.23,0.653 -7.301,1.958c-2.072,1.306 -3.542,3.951 -4.41,7.937l-5.727,-0c0,-1.95 0.124,-3.868 0.371,-5.755c0.247,-1.887 1.061,-3.565 2.442,-5.035c1.38,-1.469 3.65,-2.493 6.808,-3.07c3.159,-0.578 6.515,-0.867 10.067,-0.867c3.213,-0 6.145,0.411 8.795,1.232c2.65,0.822 4.938,2.138 6.864,3.949c1.926,1.811 3.411,4.229 4.454,7.253c1.044,3.024 1.566,6.754 1.566,11.191l-0,30.375l-7.949,-0l-3.938,-5.063l-0.562,0c-1.036,1.515 -2.763,2.924 -5.18,4.23c-2.418,1.305 -5.499,1.958 -9.243,1.958Zm4.068,-5.395c2.598,0 4.714,-0.771 6.349,-2.313c1.635,-1.542 2.859,-3.132 3.674,-4.769l-0,-14.523l-2.379,-0c-5.492,-0 -9.589,0.998 -12.289,2.994c-2.701,1.997 -4.051,4.859 -4.051,8.588c-0,3.365 0.833,5.876 2.498,7.535c1.666,1.659 3.732,2.488 6.198,2.488Z" style="fill:#fff;fill-rule:nonzero;"/><path d="M702.9,74.25l0,-38.711c0,-3.375 -0.469,-6.093 -1.406,-8.156c-0.938,-2.062 -3.094,-3.094 -6.469,-3.094l-1.585,0l-0,-2.914l12.115,-0c2.625,-0 4.668,0.404 6.131,1.212c1.462,0.808 2.494,2.231 3.094,4.27c0.6,2.038 0.9,4.932 0.9,8.682l-0,38.711l-12.78,-0Zm6.066,-59.226c-2.388,0 -4.245,-0.801 -5.571,-2.404c-1.326,-1.602 -1.989,-3.467 -1.989,-5.594c0,-1.795 0.546,-3.209 1.638,-4.243c1.093,-1.033 2.471,-1.549 4.135,-1.549c2.388,-0 4.245,0.801 5.571,2.403c1.326,1.602 1.989,3.466 1.989,5.593c0,1.797 -0.546,3.212 -1.638,4.245c-1.092,1.033 -2.471,1.549 -4.135,1.549Z" style="fill:#fff;fill-rule:nonzero;"/><path d="M729.072,74.25l0,-60.086c0,-3.375 -0.468,-6.093 -1.406,-8.156c-0.937,-2.062 -3.094,-3.094 -6.469,-3.094l-1.587,0l-0,-2.914l12.117,-0c2.625,-0 4.668,0.404 6.131,1.212c1.462,0.808 2.494,2.231 3.094,4.27c0.6,2.038 0.9,4.932 0.9,8.682l-0,60.086l-12.78,-0Z" style="fill:#fff;fill-rule:nonzero;"/><path d="M404.26,129.761l-0,-32.3l-12.818,0l0,-3.833l30.762,0l-0,3.833l-12.817,0l-0,32.3l-5.127,-0Z" style="fill:#fff;fill-rule:nonzero;"/><path d="M427.282,129.761l0,-36.133l10.938,0c3.466,0 6.123,0.765 7.971,2.295c1.847,1.53 2.771,3.752 2.771,6.665c-0,4.818 -2.434,8.236 -7.3,10.254l12.06,16.919l-6.298,-0l-10.279,-15.283l-4.785,-0l0,15.283l-5.078,-0Zm5.078,-19.116l1.66,-0c6.446,-0 9.668,-2.531 9.668,-7.593c0,-3.727 -2.702,-5.591 -8.105,-5.591l-3.223,0l0,13.184Z" style="fill:#fff;fill-rule:nonzero;"/><path d="M477.209,115.942l-6.153,-15.576l-6.176,15.576l12.329,0Zm5.42,13.819l-3.931,-10.01l-15.308,0l-3.979,10.01l-4.761,-0l14.331,-36.133l5.078,0l14.112,36.133l-5.542,-0Z" style="fill:#fff;fill-rule:nonzero;"/><path d="M508.874,130.664c-5.615,0 -9.953,-1.648 -13.013,-4.944c-3.06,-3.296 -4.59,-7.963 -4.59,-14.001c0,-6.022 1.559,-10.694 4.676,-14.014c3.116,-3.32 7.507,-4.98 13.171,-4.98c3.239,-0 7.031,0.529 11.377,1.587l-0,4.809c-4.948,-1.709 -8.765,-2.563 -11.45,-2.563c-3.923,-0 -6.958,1.326 -9.107,3.979c-2.148,2.653 -3.222,6.397 -3.222,11.231c-0,4.606 1.147,8.239 3.442,10.901c2.295,2.661 5.428,3.991 9.399,3.991c3.418,0 7.081,-1.05 10.987,-3.149l-0,4.394c-3.565,1.84 -7.455,2.759 -11.67,2.759Z" style="fill:#fff;fill-rule:nonzero;"/><path d="M527.99,129.761l0,-36.133l4.81,0l-0,17.773l14.624,-17.773l5.151,0l-14.16,17.236l16.675,18.897l-6.494,-0l-15.796,-18.311l-0,18.311l-4.81,-0Z" style="fill:#fff;fill-rule:nonzero;"/><path d="M560.632,129.761l-0,-36.133l20.19,0l0,3.833l-15.063,0l-0,11.597l12.622,-0l-0,3.784l-12.622,-0l-0,13.086l16.113,-0l-0,3.833l-21.24,-0Z" style="fill:#fff;fill-rule:nonzero;"/><path d="M587.731,129.761l0,-36.133l10.938,0c3.467,0 6.124,0.765 7.971,2.295c1.847,1.53 2.771,3.752 2.771,6.665c-0,4.818 -2.433,8.236 -7.3,10.254l12.061,16.919l-6.299,-0l-10.278,-15.283l-4.786,-0l0,15.283l-5.078,-0Zm5.078,-19.116l1.661,-0c6.445,-0 9.668,-2.531 9.668,-7.593c-0,-3.727 -2.702,-5.591 -8.106,-5.591l-3.223,0l0,13.184Z" style="fill:#fff;fill-rule:nonzero;"/></g></svg>